<mxfile host="app.diagrams.net" agent="Mozilla/5.0 (Windows NT 10.0; Win64; x64) AppleWebKit/537.36 (KHTML, like Gecko) Chrome/128.0.0.0 Safari/537.36 Edg/128.0.0.0" version="24.7.6">
  <diagram name="第 1 页" id="vjrqdGcHqM3vclcwFvUF">
    <mxGraphModel dx="788" dy="453" grid="1" gridSize="10" guides="1" tooltips="1" connect="1" arrows="1" fold="1" page="1" pageScale="1" pageWidth="827" pageHeight="1169" math="0" shadow="0">
      <root>
        <mxCell id="0" />
        <mxCell id="1" parent="0" />
        <mxCell id="D1fpOEdz_gyz_71Ya07G-1" value="交易中心" style="rounded=0;whiteSpace=wrap;html=1;verticalAlign=top;fontStyle=1" vertex="1" parent="1">
          <mxGeometry x="170" y="330" width="360" height="250" as="geometry" />
        </mxCell>
        <mxCell id="D1fpOEdz_gyz_71Ya07G-2" value="支付模块&lt;br&gt;（收钱）" style="rounded=0;whiteSpace=wrap;html=1;fillColor=#f8cecc;strokeColor=#b85450;" vertex="1" parent="1">
          <mxGeometry x="200" y="400" width="140" height="60" as="geometry" />
        </mxCell>
        <mxCell id="D1fpOEdz_gyz_71Ya07G-3" value="红包功能模块&lt;br&gt;（发钱）" style="rounded=0;whiteSpace=wrap;html=1;fillColor=#fff2cc;strokeColor=#d6b656;" vertex="1" parent="1">
          <mxGeometry x="370" y="400" width="140" height="60" as="geometry" />
        </mxCell>
        <mxCell id="D1fpOEdz_gyz_71Ya07G-6" value="服务授权" style="rounded=0;whiteSpace=wrap;html=1;fillColor=#e1d5e7;strokeColor=#9673a6;" vertex="1" parent="1">
          <mxGeometry x="200" y="370" width="310" height="20" as="geometry" />
        </mxCell>
        <mxCell id="D1fpOEdz_gyz_71Ya07G-7" value="第三方集成" style="rounded=0;whiteSpace=wrap;html=1;fillColor=#f8cecc;strokeColor=#b85450;" vertex="1" parent="1">
          <mxGeometry x="200" y="470" width="310" height="20" as="geometry" />
        </mxCell>
        <mxCell id="D1fpOEdz_gyz_71Ya07G-17" value="" style="rounded=0;whiteSpace=wrap;html=1;" vertex="1" parent="1">
          <mxGeometry x="390" y="550" width="140" height="30" as="geometry" />
        </mxCell>
        <mxCell id="D1fpOEdz_gyz_71Ya07G-11" value="集成功能" style="rounded=0;whiteSpace=wrap;html=1;fillColor=#fff2cc;strokeColor=#d6b656;" vertex="1" parent="1">
          <mxGeometry x="396" y="555" width="60" height="20" as="geometry" />
        </mxCell>
        <mxCell id="D1fpOEdz_gyz_71Ya07G-12" value="基础功能" style="rounded=0;whiteSpace=wrap;html=1;fillColor=#fff2cc;strokeColor=#d6b656;" vertex="1" parent="1">
          <mxGeometry x="466" y="555" width="60" height="20" as="geometry" />
        </mxCell>
        <mxCell id="D1fpOEdz_gyz_71Ya07G-14" value="品牌红包" style="rounded=0;whiteSpace=wrap;html=1;fillColor=#fff2cc;strokeColor=#d6b656;" vertex="1" parent="1">
          <mxGeometry x="540" y="470" width="70" height="20" as="geometry" />
        </mxCell>
        <mxCell id="D1fpOEdz_gyz_71Ya07G-15" value="小程序红包" style="rounded=0;whiteSpace=wrap;html=1;fillColor=#fff2cc;strokeColor=#d6b656;" vertex="1" parent="1">
          <mxGeometry x="540" y="408" width="70" height="20" as="geometry" />
        </mxCell>
        <mxCell id="D1fpOEdz_gyz_71Ya07G-16" value="公众号红包" style="rounded=0;whiteSpace=wrap;html=1;fillColor=#fff2cc;strokeColor=#d6b656;" vertex="1" parent="1">
          <mxGeometry x="540" y="438" width="70" height="20" as="geometry" />
        </mxCell>
        <mxCell id="D1fpOEdz_gyz_71Ya07G-18" value="对账中心（付款记录、回执、通知）" style="rounded=0;whiteSpace=wrap;html=1;fillColor=#f8cecc;strokeColor=#b85450;" vertex="1" parent="1">
          <mxGeometry x="200" y="499" width="310" height="20" as="geometry" />
        </mxCell>
      </root>
    </mxGraphModel>
  </diagram>
</mxfile>
